<svg class="rich-terminal" viewBox="0 0 1238 1026.0" xmlns="http://www.w3.org/2000/svg">
    <!-- Generated with Rich https://www.textualize.io -->
    <style>

    @font-face {
        font-family: "Fira Code";
        src: local("FiraCode-Regular"),
                url("https://cdnjs.cloudflare.com/ajax/libs/firacode/6.2.0/woff2/FiraCode-Regular.woff2") format("woff2"),
                url("https://cdnjs.cloudflare.com/ajax/libs/firacode/6.2.0/woff/FiraCode-Regular.woff") format("woff");
        font-style: normal;
        font-weight: 400;
    }
    @font-face {
        font-family: "Fira Code";
        src: local("FiraCode-Bold"),
                url("https://cdnjs.cloudflare.com/ajax/libs/firacode/6.2.0/woff2/FiraCode-Bold.woff2") format("woff2"),
                url("https://cdnjs.cloudflare.com/ajax/libs/firacode/6.2.0/woff/FiraCode-Bold.woff") format("woff");
        font-style: bold;
        font-weight: 700;
    }

    .terminal-488578632-matrix {
        font-family: Fira Code, monospace;
        font-size: 20px;
        line-height: 24.4px;
        font-variant-east-asian: full-width;
    }

    .terminal-488578632-title {
        font-size: 18px;
        font-weight: bold;
        font-family: arial;
    }

    .terminal-488578632-r1 { fill: #c5c8c6 }
.terminal-488578632-r2 { fill: #1a1a2e;font-weight: bold }
.terminal-488578632-r3 { fill: #d4a017 }
.terminal-488578632-r4 { fill: #d4a017;font-weight: bold }
.terminal-488578632-r5 { fill: #8892a0 }
.terminal-488578632-r6 { fill: #e0e0e0;font-weight: bold }
.terminal-488578632-r7 { fill: #e0e0e0 }
.terminal-488578632-r8 { fill: #2ecc71 }
.terminal-488578632-r9 { fill: #6db2ff }
.terminal-488578632-r10 { fill: #ddedf9;font-weight: bold }
.terminal-488578632-r11 { fill: #004295 }
.terminal-488578632-r12 { fill: #ffa62b;font-weight: bold }
.terminal-488578632-r13 { fill: #3e475e }
    </style>

    <defs>
    <clipPath id="terminal-488578632-clip-terminal">
      <rect x="0" y="0" width="1219.0" height="975.0" />
    </clipPath>
    <clipPath id="terminal-488578632-line-0">
    <rect x="0" y="1.5" width="1220" height="24.65"/>
            </clipPath>
<clipPath id="terminal-488578632-line-1">
    <rect x="0" y="25.9" width="1220" height="24.65"/>
            </clipPath>
<clipPath id="terminal-488578632-line-2">
    <rect x="0" y="50.3" width="1220" height="24.65"/>
            </clipPath>
<clipPath id="terminal-488578632-line-3">
    <rect x="0" y="74.7" width="1220" height="24.65"/>
            </clipPath>
<clipPath id="terminal-488578632-line-4">
    <rect x="0" y="99.1" width="1220" height="24.65"/>
            </clipPath>
<clipPath id="terminal-488578632-line-5">
    <rect x="0" y="123.5" width="1220" height="24.65"/>
            </clipPath>
<clipPath id="terminal-488578632-line-6">
    <rect x="0" y="147.9" width="1220" height="24.65"/>
            </clipPath>
<clipPath id="terminal-488578632-line-7">
    <rect x="0" y="172.3" width="1220" height="24.65"/>
            </clipPath>
<clipPath id="terminal-488578632-line-8">
    <rect x="0" y="196.7" width="1220" height="24.65"/>
            </clipPath>
<clipPath id="terminal-488578632-line-9">
    <rect x="0" y="221.1" width="1220" height="24.65"/>
            </clipPath>
<clipPath id="terminal-488578632-line-10">
    <rect x="0" y="245.5" width="1220" height="24.65"/>
            </clipPath>
<clipPath id="terminal-488578632-line-11">
    <rect x="0" y="269.9" width="1220" height="24.65"/>
            </clipPath>
<clipPath id="terminal-488578632-line-12">
    <rect x="0" y="294.3" width="1220" height="24.65"/>
            </clipPath>
<clipPath id="terminal-488578632-line-13">
    <rect x="0" y="318.7" width="1220" height="24.65"/>
            </clipPath>
<clipPath id="terminal-488578632-line-14">
    <rect x="0" y="343.1" width="1220" height="24.65"/>
            </clipPath>
<clipPath id="terminal-488578632-line-15">
    <rect x="0" y="367.5" width="1220" height="24.65"/>
            </clipPath>
<clipPath id="terminal-488578632-line-16">
    <rect x="0" y="391.9" width="1220" height="24.65"/>
            </clipPath>
<clipPath id="terminal-488578632-line-17">
    <rect x="0" y="416.3" width="1220" height="24.65"/>
            </clipPath>
<clipPath id="terminal-488578632-line-18">
    <rect x="0" y="440.7" width="1220" height="24.65"/>
            </clipPath>
<clipPath id="terminal-488578632-line-19">
    <rect x="0" y="465.1" width="1220" height="24.65"/>
            </clipPath>
<clipPath id="terminal-488578632-line-20">
    <rect x="0" y="489.5" width="1220" height="24.65"/>
            </clipPath>
<clipPath id="terminal-488578632-line-21">
    <rect x="0" y="513.9" width="1220" height="24.65"/>
            </clipPath>
<clipPath id="terminal-488578632-line-22">
    <rect x="0" y="538.3" width="1220" height="24.65"/>
            </clipPath>
<clipPath id="terminal-488578632-line-23">
    <rect x="0" y="562.7" width="1220" height="24.65"/>
            </clipPath>
<clipPath id="terminal-488578632-line-24">
    <rect x="0" y="587.1" width="1220" height="24.65"/>
            </clipPath>
<clipPath id="terminal-488578632-line-25">
    <rect x="0" y="611.5" width="1220" height="24.65"/>
            </clipPath>
<clipPath id="terminal-488578632-line-26">
    <rect x="0" y="635.9" width="1220" height="24.65"/>
            </clipPath>
<clipPath id="terminal-488578632-line-27">
    <rect x="0" y="660.3" width="1220" height="24.65"/>
            </clipPath>
<clipPath id="terminal-488578632-line-28">
    <rect x="0" y="684.7" width="1220" height="24.65"/>
            </clipPath>
<clipPath id="terminal-488578632-line-29">
    <rect x="0" y="709.1" width="1220" height="24.65"/>
            </clipPath>
<clipPath id="terminal-488578632-line-30">
    <rect x="0" y="733.5" width="1220" height="24.65"/>
            </clipPath>
<clipPath id="terminal-488578632-line-31">
    <rect x="0" y="757.9" width="1220" height="24.65"/>
            </clipPath>
<clipPath id="terminal-488578632-line-32">
    <rect x="0" y="782.3" width="1220" height="24.65"/>
            </clipPath>
<clipPath id="terminal-488578632-line-33">
    <rect x="0" y="806.7" width="1220" height="24.65"/>
            </clipPath>
<clipPath id="terminal-488578632-line-34">
    <rect x="0" y="831.1" width="1220" height="24.65"/>
            </clipPath>
<clipPath id="terminal-488578632-line-35">
    <rect x="0" y="855.5" width="1220" height="24.65"/>
            </clipPath>
<clipPath id="terminal-488578632-line-36">
    <rect x="0" y="879.9" width="1220" height="24.65"/>
            </clipPath>
<clipPath id="terminal-488578632-line-37">
    <rect x="0" y="904.3" width="1220" height="24.65"/>
            </clipPath>
<clipPath id="terminal-488578632-line-38">
    <rect x="0" y="928.7" width="1220" height="24.65"/>
            </clipPath>
    </defs>

    <rect fill="#292929" stroke="rgba(255,255,255,0.35)" stroke-width="1" x="1" y="1" width="1236" height="1024" rx="8"/><text class="terminal-488578632-title" fill="#c5c8c6" text-anchor="middle" x="618" y="27">GoldenMatch&#160;Setup</text>
            <g transform="translate(26,22)">
            <circle cx="0" cy="0" r="7" fill="#ff5f57"/>
            <circle cx="22" cy="0" r="7" fill="#febc2e"/>
            <circle cx="44" cy="0" r="7" fill="#28c840"/>
            </g>
        
    <g transform="translate(9, 41)" clip-path="url(#terminal-488578632-clip-terminal)">
    <rect fill="#d4a017" x="0" y="1.5" width="12.2" height="24.65" shape-rendering="crispEdges"/><rect fill="#d4a017" x="12.2" y="1.5" width="12.2" height="24.65" shape-rendering="crispEdges"/><rect fill="#d4a017" x="24.4" y="1.5" width="61" height="24.65" shape-rendering="crispEdges"/><rect fill="#d4a017" x="85.4" y="1.5" width="12.2" height="24.65" shape-rendering="crispEdges"/><rect fill="#d4a017" x="97.6" y="1.5" width="390.4" height="24.65" shape-rendering="crispEdges"/><rect fill="#d4a017" x="488" y="1.5" width="207.4" height="24.65" shape-rendering="crispEdges"/><rect fill="#d4a017" x="695.4" y="1.5" width="402.6" height="24.65" shape-rendering="crispEdges"/><rect fill="#d4a017" x="1098" y="1.5" width="12.2" height="24.65" shape-rendering="crispEdges"/><rect fill="#d4a017" x="1110.2" y="1.5" width="0" height="24.65" shape-rendering="crispEdges"/><rect fill="#d4a017" x="1110.2" y="1.5" width="97.6" height="24.65" shape-rendering="crispEdges"/><rect fill="#d4a017" x="1207.8" y="1.5" width="12.2" height="24.65" shape-rendering="crispEdges"/><rect fill="#1a1a2e" x="0" y="25.9" width="122" height="24.65" shape-rendering="crispEdges"/><rect fill="#16213e" x="122" y="25.9" width="12.2" height="24.65" shape-rendering="crispEdges"/><rect fill="#16213e" x="134.2" y="25.9" width="951.6" height="24.65" shape-rendering="crispEdges"/><rect fill="#16213e" x="1085.8" y="25.9" width="12.2" height="24.65" shape-rendering="crispEdges"/><rect fill="#1a1a2e" x="1098" y="25.9" width="122" height="24.65" shape-rendering="crispEdges"/><rect fill="#1a1a2e" x="0" y="50.3" width="122" height="24.65" shape-rendering="crispEdges"/><rect fill="#16213e" x="122" y="50.3" width="12.2" height="24.65" shape-rendering="crispEdges"/><rect fill="#16213e" x="134.2" y="50.3" width="951.6" height="24.65" shape-rendering="crispEdges"/><rect fill="#16213e" x="1085.8" y="50.3" width="12.2" height="24.65" shape-rendering="crispEdges"/><rect fill="#1a1a2e" x="1098" y="50.3" width="122" height="24.65" shape-rendering="crispEdges"/><rect fill="#1a1a2e" x="0" y="74.7" width="122" height="24.65" shape-rendering="crispEdges"/><rect fill="#16213e" x="122" y="74.7" width="12.2" height="24.65" shape-rendering="crispEdges"/><rect fill="#16213e" x="134.2" y="74.7" width="951.6" height="24.65" shape-rendering="crispEdges"/><rect fill="#16213e" x="1085.8" y="74.7" width="12.2" height="24.65" shape-rendering="crispEdges"/><rect fill="#1a1a2e" x="1098" y="74.7" width="122" height="24.65" shape-rendering="crispEdges"/><rect fill="#1a1a2e" x="0" y="99.1" width="122" height="24.65" shape-rendering="crispEdges"/><rect fill="#16213e" x="122" y="99.1" width="12.2" height="24.65" shape-rendering="crispEdges"/><rect fill="#16213e" x="134.2" y="99.1" width="48.8" height="24.65" shape-rendering="crispEdges"/><rect fill="#16213e" x="183" y="99.1" width="280.6" height="24.65" shape-rendering="crispEdges"/><rect fill="#16213e" x="463.6" y="99.1" width="292.8" height="24.65" shape-rendering="crispEdges"/><rect fill="#16213e" x="756.4" y="99.1" width="280.6" height="24.65" shape-rendering="crispEdges"/><rect fill="#16213e" x="1037" y="99.1" width="48.8" height="24.65" shape-rendering="crispEdges"/><rect fill="#16213e" x="1085.8" y="99.1" width="12.2" height="24.65" shape-rendering="crispEdges"/><rect fill="#1a1a2e" x="1098" y="99.1" width="122" height="24.65" shape-rendering="crispEdges"/><rect fill="#1a1a2e" x="0" y="123.5" width="122" height="24.65" shape-rendering="crispEdges"/><rect fill="#16213e" x="122" y="123.5" width="12.2" height="24.65" shape-rendering="crispEdges"/><rect fill="#16213e" x="134.2" y="123.5" width="48.8" height="24.65" shape-rendering="crispEdges"/><rect fill="#16213e" x="183" y="123.5" width="854" height="24.65" shape-rendering="crispEdges"/><rect fill="#16213e" x="1037" y="123.5" width="48.8" height="24.65" shape-rendering="crispEdges"/><rect fill="#16213e" x="1085.8" y="123.5" width="12.2" height="24.65" shape-rendering="crispEdges"/><rect fill="#1a1a2e" x="1098" y="123.5" width="122" height="24.65" shape-rendering="crispEdges"/><rect fill="#1a1a2e" x="0" y="147.9" width="122" height="24.65" shape-rendering="crispEdges"/><rect fill="#16213e" x="122" y="147.9" width="12.2" height="24.65" shape-rendering="crispEdges"/><rect fill="#16213e" x="134.2" y="147.9" width="48.8" height="24.65" shape-rendering="crispEdges"/><rect fill="#16213e" x="183" y="147.9" width="353.8" height="24.65" shape-rendering="crispEdges"/><rect fill="#16213e" x="536.8" y="147.9" width="134.2" height="24.65" shape-rendering="crispEdges"/><rect fill="#16213e" x="671" y="147.9" width="366" height="24.65" shape-rendering="crispEdges"/><rect fill="#16213e" x="1037" y="147.9" width="48.8" height="24.65" shape-rendering="crispEdges"/><rect fill="#16213e" x="1085.8" y="147.9" width="12.2" height="24.65" shape-rendering="crispEdges"/><rect fill="#1a1a2e" x="1098" y="147.9" width="122" height="24.65" shape-rendering="crispEdges"/><rect fill="#1a1a2e" x="0" y="172.3" width="122" height="24.65" shape-rendering="crispEdges"/><rect fill="#16213e" x="122" y="172.3" width="12.2" height="24.65" shape-rendering="crispEdges"/><rect fill="#16213e" x="134.2" y="172.3" width="48.8" height="24.65" shape-rendering="crispEdges"/><rect fill="#16213e" x="183" y="172.3" width="854" height="24.65" shape-rendering="crispEdges"/><rect fill="#16213e" x="1037" y="172.3" width="48.8" height="24.65" shape-rendering="crispEdges"/><rect fill="#16213e" x="1085.8" y="172.3" width="12.2" height="24.65" shape-rendering="crispEdges"/><rect fill="#1a1a2e" x="1098" y="172.3" width="122" height="24.65" shape-rendering="crispEdges"/><rect fill="#1a1a2e" x="0" y="196.7" width="122" height="24.65" shape-rendering="crispEdges"/><rect fill="#16213e" x="122" y="196.7" width="12.2" height="24.65" shape-rendering="crispEdges"/><rect fill="#16213e" x="134.2" y="196.7" width="48.8" height="24.65" shape-rendering="crispEdges"/><rect fill="#16213e" x="183" y="196.7" width="97.6" height="24.65" shape-rendering="crispEdges"/><rect fill="#16213e" x="280.6" y="196.7" width="756.4" height="24.65" shape-rendering="crispEdges"/><rect fill="#16213e" x="1037" y="196.7" width="48.8" height="24.65" shape-rendering="crispEdges"/><rect fill="#16213e" x="1085.8" y="196.7" width="12.2" height="24.65" shape-rendering="crispEdges"/><rect fill="#1a1a2e" x="1098" y="196.7" width="122" height="24.65" shape-rendering="crispEdges"/><rect fill="#1a1a2e" x="0" y="221.1" width="122" height="24.65" shape-rendering="crispEdges"/><rect fill="#16213e" x="122" y="221.1" width="12.2" height="24.65" shape-rendering="crispEdges"/><rect fill="#16213e" x="134.2" y="221.1" width="48.8" height="24.65" shape-rendering="crispEdges"/><rect fill="#16213e" x="183" y="221.1" width="0" height="24.65" shape-rendering="crispEdges"/><rect fill="#16213e" x="183" y="221.1" width="854" height="24.65" shape-rendering="crispEdges"/><rect fill="#16213e" x="1037" y="221.1" width="48.8" height="24.65" shape-rendering="crispEdges"/><rect fill="#16213e" x="1085.8" y="221.1" width="12.2" height="24.65" shape-rendering="crispEdges"/><rect fill="#1a1a2e" x="1098" y="221.1" width="122" height="24.65" shape-rendering="crispEdges"/><rect fill="#1a1a2e" x="0" y="245.5" width="122" height="24.65" shape-rendering="crispEdges"/><rect fill="#16213e" x="122" y="245.5" width="12.2" height="24.65" shape-rendering="crispEdges"/><rect fill="#16213e" x="134.2" y="245.5" width="48.8" height="24.65" shape-rendering="crispEdges"/><rect fill="#16213e" x="183" y="245.5" width="536.8" height="24.65" shape-rendering="crispEdges"/><rect fill="#16213e" x="719.8" y="245.5" width="317.2" height="24.65" shape-rendering="crispEdges"/><rect fill="#16213e" x="1037" y="245.5" width="48.8" height="24.65" shape-rendering="crispEdges"/><rect fill="#16213e" x="1085.8" y="245.5" width="12.2" height="24.65" shape-rendering="crispEdges"/><rect fill="#1a1a2e" x="1098" y="245.5" width="122" height="24.65" shape-rendering="crispEdges"/><rect fill="#1a1a2e" x="0" y="269.9" width="122" height="24.65" shape-rendering="crispEdges"/><rect fill="#16213e" x="122" y="269.9" width="12.2" height="24.65" shape-rendering="crispEdges"/><rect fill="#16213e" x="134.2" y="269.9" width="48.8" height="24.65" shape-rendering="crispEdges"/><rect fill="#16213e" x="183" y="269.9" width="597.8" height="24.65" shape-rendering="crispEdges"/><rect fill="#16213e" x="780.8" y="269.9" width="256.2" height="24.65" shape-rendering="crispEdges"/><rect fill="#16213e" x="1037" y="269.9" width="48.8" height="24.65" shape-rendering="crispEdges"/><rect fill="#16213e" x="1085.8" y="269.9" width="12.2" height="24.65" shape-rendering="crispEdges"/><rect fill="#1a1a2e" x="1098" y="269.9" width="122" height="24.65" shape-rendering="crispEdges"/><rect fill="#1a1a2e" x="0" y="294.3" width="122" height="24.65" shape-rendering="crispEdges"/><rect fill="#16213e" x="122" y="294.3" width="12.2" height="24.65" shape-rendering="crispEdges"/><rect fill="#16213e" x="134.2" y="294.3" width="48.8" height="24.65" shape-rendering="crispEdges"/><rect fill="#16213e" x="183" y="294.3" width="0" height="24.65" shape-rendering="crispEdges"/><rect fill="#16213e" x="183" y="294.3" width="854" height="24.65" shape-rendering="crispEdges"/><rect fill="#16213e" x="1037" y="294.3" width="48.8" height="24.65" shape-rendering="crispEdges"/><rect fill="#16213e" x="1085.8" y="294.3" width="12.2" height="24.65" shape-rendering="crispEdges"/><rect fill="#1a1a2e" x="1098" y="294.3" width="122" height="24.65" shape-rendering="crispEdges"/><rect fill="#1a1a2e" x="0" y="318.7" width="122" height="24.65" shape-rendering="crispEdges"/><rect fill="#16213e" x="122" y="318.7" width="12.2" height="24.65" shape-rendering="crispEdges"/><rect fill="#16213e" x="134.2" y="318.7" width="48.8" height="24.65" shape-rendering="crispEdges"/><rect fill="#16213e" x="183" y="318.7" width="183" height="24.65" shape-rendering="crispEdges"/><rect fill="#16213e" x="366" y="318.7" width="671" height="24.65" shape-rendering="crispEdges"/><rect fill="#16213e" x="1037" y="318.7" width="48.8" height="24.65" shape-rendering="crispEdges"/><rect fill="#16213e" x="1085.8" y="318.7" width="12.2" height="24.65" shape-rendering="crispEdges"/><rect fill="#1a1a2e" x="1098" y="318.7" width="122" height="24.65" shape-rendering="crispEdges"/><rect fill="#1a1a2e" x="0" y="343.1" width="122" height="24.65" shape-rendering="crispEdges"/><rect fill="#16213e" x="122" y="343.1" width="12.2" height="24.65" shape-rendering="crispEdges"/><rect fill="#16213e" x="134.2" y="343.1" width="48.8" height="24.65" shape-rendering="crispEdges"/><rect fill="#16213e" x="183" y="343.1" width="24.4" height="24.65" shape-rendering="crispEdges"/><rect fill="#16213e" x="207.4" y="343.1" width="12.2" height="24.65" shape-rendering="crispEdges"/><rect fill="#16213e" x="219.6" y="343.1" width="244" height="24.65" shape-rendering="crispEdges"/><rect fill="#16213e" x="463.6" y="343.1" width="317.2" height="24.65" shape-rendering="crispEdges"/><rect fill="#16213e" x="780.8" y="343.1" width="256.2" height="24.65" shape-rendering="crispEdges"/><rect fill="#16213e" x="1037" y="343.1" width="48.8" height="24.65" shape-rendering="crispEdges"/><rect fill="#16213e" x="1085.8" y="343.1" width="12.2" height="24.65" shape-rendering="crispEdges"/><rect fill="#1a1a2e" x="1098" y="343.1" width="122" height="24.65" shape-rendering="crispEdges"/><rect fill="#1a1a2e" x="0" y="367.5" width="122" height="24.65" shape-rendering="crispEdges"/><rect fill="#16213e" x="122" y="367.5" width="12.2" height="24.65" shape-rendering="crispEdges"/><rect fill="#16213e" x="134.2" y="367.5" width="48.8" height="24.65" shape-rendering="crispEdges"/><rect fill="#16213e" x="183" y="367.5" width="24.4" height="24.65" shape-rendering="crispEdges"/><rect fill="#16213e" x="207.4" y="367.5" width="12.2" height="24.65" shape-rendering="crispEdges"/><rect fill="#16213e" x="219.6" y="367.5" width="451.4" height="24.65" shape-rendering="crispEdges"/><rect fill="#16213e" x="671" y="367.5" width="366" height="24.65" shape-rendering="crispEdges"/><rect fill="#16213e" x="1037" y="367.5" width="48.8" height="24.65" shape-rendering="crispEdges"/><rect fill="#16213e" x="1085.8" y="367.5" width="12.2" height="24.65" shape-rendering="crispEdges"/><rect fill="#1a1a2e" x="1098" y="367.5" width="122" height="24.65" shape-rendering="crispEdges"/><rect fill="#1a1a2e" x="0" y="391.9" width="122" height="24.65" shape-rendering="crispEdges"/><rect fill="#16213e" x="122" y="391.9" width="12.2" height="24.65" shape-rendering="crispEdges"/><rect fill="#16213e" x="134.2" y="391.9" width="48.8" height="24.65" shape-rendering="crispEdges"/><rect fill="#16213e" x="183" y="391.9" width="24.4" height="24.65" shape-rendering="crispEdges"/><rect fill="#16213e" x="207.4" y="391.9" width="12.2" height="24.65" shape-rendering="crispEdges"/><rect fill="#16213e" x="219.6" y="391.9" width="439.2" height="24.65" shape-rendering="crispEdges"/><rect fill="#16213e" x="658.8" y="391.9" width="378.2" height="24.65" shape-rendering="crispEdges"/><rect fill="#16213e" x="1037" y="391.9" width="48.8" height="24.65" shape-rendering="crispEdges"/><rect fill="#16213e" x="1085.8" y="391.9" width="12.2" height="24.65" shape-rendering="crispEdges"/><rect fill="#1a1a2e" x="1098" y="391.9" width="122" height="24.65" shape-rendering="crispEdges"/><rect fill="#1a1a2e" x="0" y="416.3" width="122" height="24.65" shape-rendering="crispEdges"/><rect fill="#16213e" x="122" y="416.3" width="12.2" height="24.65" shape-rendering="crispEdges"/><rect fill="#16213e" x="134.2" y="416.3" width="48.8" height="24.65" shape-rendering="crispEdges"/><rect fill="#16213e" x="183" y="416.3" width="854" height="24.65" shape-rendering="crispEdges"/><rect fill="#16213e" x="1037" y="416.3" width="48.8" height="24.65" shape-rendering="crispEdges"/><rect fill="#16213e" x="1085.8" y="416.3" width="12.2" height="24.65" shape-rendering="crispEdges"/><rect fill="#1a1a2e" x="1098" y="416.3" width="122" height="24.65" shape-rendering="crispEdges"/><rect fill="#1a1a2e" x="0" y="440.7" width="122" height="24.65" shape-rendering="crispEdges"/><rect fill="#16213e" x="122" y="440.7" width="12.2" height="24.65" shape-rendering="crispEdges"/><rect fill="#16213e" x="134.2" y="440.7" width="48.8" height="24.65" shape-rendering="crispEdges"/><rect fill="#16213e" x="183" y="440.7" width="0" height="24.65" shape-rendering="crispEdges"/><rect fill="#16213e" x="183" y="440.7" width="854" height="24.65" shape-rendering="crispEdges"/><rect fill="#16213e" x="1037" y="440.7" width="48.8" height="24.65" shape-rendering="crispEdges"/><rect fill="#16213e" x="1085.8" y="440.7" width="12.2" height="24.65" shape-rendering="crispEdges"/><rect fill="#1a1a2e" x="1098" y="440.7" width="122" height="24.65" shape-rendering="crispEdges"/><rect fill="#1a1a2e" x="0" y="465.1" width="122" height="24.65" shape-rendering="crispEdges"/><rect fill="#16213e" x="122" y="465.1" width="12.2" height="24.65" shape-rendering="crispEdges"/><rect fill="#16213e" x="134.2" y="465.1" width="48.8" height="24.65" shape-rendering="crispEdges"/><rect fill="#16213e" x="183" y="465.1" width="0" height="24.65" shape-rendering="crispEdges"/><rect fill="#16213e" x="183" y="465.1" width="854" height="24.65" shape-rendering="crispEdges"/><rect fill="#16213e" x="1037" y="465.1" width="48.8" height="24.65" shape-rendering="crispEdges"/><rect fill="#16213e" x="1085.8" y="465.1" width="12.2" height="24.65" shape-rendering="crispEdges"/><rect fill="#1a1a2e" x="1098" y="465.1" width="122" height="24.65" shape-rendering="crispEdges"/><rect fill="#1a1a2e" x="0" y="489.5" width="122" height="24.65" shape-rendering="crispEdges"/><rect fill="#16213e" x="122" y="489.5" width="12.2" height="24.65" shape-rendering="crispEdges"/><rect fill="#16213e" x="134.2" y="489.5" width="48.8" height="24.65" shape-rendering="crispEdges"/><rect fill="#16213e" x="183" y="489.5" width="854" height="24.65" shape-rendering="crispEdges"/><rect fill="#16213e" x="1037" y="489.5" width="48.8" height="24.65" shape-rendering="crispEdges"/><rect fill="#16213e" x="1085.8" y="489.5" width="12.2" height="24.65" shape-rendering="crispEdges"/><rect fill="#1a1a2e" x="1098" y="489.5" width="122" height="24.65" shape-rendering="crispEdges"/><rect fill="#1a1a2e" x="0" y="513.9" width="122" height="24.65" shape-rendering="crispEdges"/><rect fill="#16213e" x="122" y="513.9" width="12.2" height="24.65" shape-rendering="crispEdges"/><rect fill="#16213e" x="134.2" y="513.9" width="48.8" height="24.65" shape-rendering="crispEdges"/><rect fill="#16213e" x="183" y="513.9" width="329.4" height="24.65" shape-rendering="crispEdges"/><rect fill="#0178d4" x="512.4" y="513.9" width="195.2" height="24.65" shape-rendering="crispEdges"/><rect fill="#16213e" x="707.6" y="513.9" width="329.4" height="24.65" shape-rendering="crispEdges"/><rect fill="#16213e" x="1037" y="513.9" width="48.8" height="24.65" shape-rendering="crispEdges"/><rect fill="#16213e" x="1085.8" y="513.9" width="12.2" height="24.65" shape-rendering="crispEdges"/><rect fill="#1a1a2e" x="1098" y="513.9" width="122" height="24.65" shape-rendering="crispEdges"/><rect fill="#1a1a2e" x="0" y="538.3" width="122" height="24.65" shape-rendering="crispEdges"/><rect fill="#16213e" x="122" y="538.3" width="12.2" height="24.65" shape-rendering="crispEdges"/><rect fill="#16213e" x="134.2" y="538.3" width="48.8" height="24.65" shape-rendering="crispEdges"/><rect fill="#16213e" x="183" y="538.3" width="329.4" height="24.65" shape-rendering="crispEdges"/><rect fill="#0178d4" x="512.4" y="538.3" width="61" height="24.65" shape-rendering="crispEdges"/><rect fill="#0178d4" x="573.4" y="538.3" width="73.2" height="24.65" shape-rendering="crispEdges"/><rect fill="#0178d4" x="646.6" y="538.3" width="61" height="24.65" shape-rendering="crispEdges"/><rect fill="#16213e" x="707.6" y="538.3" width="329.4" height="24.65" shape-rendering="crispEdges"/><rect fill="#16213e" x="1037" y="538.3" width="48.8" height="24.65" shape-rendering="crispEdges"/><rect fill="#16213e" x="1085.8" y="538.3" width="12.2" height="24.65" shape-rendering="crispEdges"/><rect fill="#1a1a2e" x="1098" y="538.3" width="122" height="24.65" shape-rendering="crispEdges"/><rect fill="#1a1a2e" x="0" y="562.7" width="122" height="24.65" shape-rendering="crispEdges"/><rect fill="#16213e" x="122" y="562.7" width="12.2" height="24.65" shape-rendering="crispEdges"/><rect fill="#16213e" x="134.2" y="562.7" width="48.8" height="24.65" shape-rendering="crispEdges"/><rect fill="#16213e" x="183" y="562.7" width="329.4" height="24.65" shape-rendering="crispEdges"/><rect fill="#0178d4" x="512.4" y="562.7" width="195.2" height="24.65" shape-rendering="crispEdges"/><rect fill="#16213e" x="707.6" y="562.7" width="329.4" height="24.65" shape-rendering="crispEdges"/><rect fill="#16213e" x="1037" y="562.7" width="48.8" height="24.65" shape-rendering="crispEdges"/><rect fill="#16213e" x="1085.8" y="562.7" width="12.2" height="24.65" shape-rendering="crispEdges"/><rect fill="#1a1a2e" x="1098" y="562.7" width="122" height="24.65" shape-rendering="crispEdges"/><rect fill="#1a1a2e" x="0" y="587.1" width="122" height="24.65" shape-rendering="crispEdges"/><rect fill="#16213e" x="122" y="587.1" width="12.2" height="24.65" shape-rendering="crispEdges"/><rect fill="#16213e" x="134.2" y="587.1" width="951.6" height="24.65" shape-rendering="crispEdges"/><rect fill="#16213e" x="1085.8" y="587.1" width="12.2" height="24.65" shape-rendering="crispEdges"/><rect fill="#1a1a2e" x="1098" y="587.1" width="122" height="24.65" shape-rendering="crispEdges"/><rect fill="#1a1a2e" x="0" y="611.5" width="122" height="24.65" shape-rendering="crispEdges"/><rect fill="#16213e" x="122" y="611.5" width="12.2" height="24.65" shape-rendering="crispEdges"/><rect fill="#16213e" x="134.2" y="611.5" width="951.6" height="24.65" shape-rendering="crispEdges"/><rect fill="#16213e" x="1085.8" y="611.5" width="12.2" height="24.65" shape-rendering="crispEdges"/><rect fill="#1a1a2e" x="1098" y="611.5" width="122" height="24.65" shape-rendering="crispEdges"/><rect fill="#1a1a2e" x="0" y="635.9" width="122" height="24.65" shape-rendering="crispEdges"/><rect fill="#16213e" x="122" y="635.9" width="12.2" height="24.65" shape-rendering="crispEdges"/><rect fill="#16213e" x="134.2" y="635.9" width="951.6" height="24.65" shape-rendering="crispEdges"/><rect fill="#16213e" x="1085.8" y="635.9" width="12.2" height="24.65" shape-rendering="crispEdges"/><rect fill="#1a1a2e" x="1098" y="635.9" width="122" height="24.65" shape-rendering="crispEdges"/><rect fill="#1a1a2e" x="0" y="660.3" width="1220" height="24.65" shape-rendering="crispEdges"/><rect fill="#1a1a2e" x="0" y="684.7" width="1220" height="24.65" shape-rendering="crispEdges"/><rect fill="#1a1a2e" x="0" y="709.1" width="1220" height="24.65" shape-rendering="crispEdges"/><rect fill="#1a1a2e" x="0" y="733.5" width="1220" height="24.65" shape-rendering="crispEdges"/><rect fill="#1a1a2e" x="0" y="757.9" width="1220" height="24.65" shape-rendering="crispEdges"/><rect fill="#1a1a2e" x="0" y="782.3" width="1220" height="24.65" shape-rendering="crispEdges"/><rect fill="#1a1a2e" x="0" y="806.7" width="1220" height="24.65" shape-rendering="crispEdges"/><rect fill="#1a1a2e" x="0" y="831.1" width="1220" height="24.65" shape-rendering="crispEdges"/><rect fill="#1a1a2e" x="0" y="855.5" width="1220" height="24.65" shape-rendering="crispEdges"/><rect fill="#1a1a2e" x="0" y="879.9" width="1220" height="24.65" shape-rendering="crispEdges"/><rect fill="#1a1a2e" x="0" y="904.3" width="1220" height="24.65" shape-rendering="crispEdges"/><rect fill="#1a1a2e" x="0" y="928.7" width="1220" height="24.65" shape-rendering="crispEdges"/><rect fill="#16213e" x="0" y="953.1" width="61" height="24.65" shape-rendering="crispEdges"/><rect fill="#16213e" x="61" y="953.1" width="85.4" height="24.65" shape-rendering="crispEdges"/><rect fill="#16213e" x="146.4" y="953.1" width="927.2" height="24.65" shape-rendering="crispEdges"/><rect fill="#16213e" x="1073.6" y="953.1" width="12.2" height="24.65" shape-rendering="crispEdges"/><rect fill="#16213e" x="1085.8" y="953.1" width="24.4" height="24.65" shape-rendering="crispEdges"/><rect fill="#16213e" x="1110.2" y="953.1" width="97.6" height="24.65" shape-rendering="crispEdges"/><rect fill="#16213e" x="1207.8" y="953.1" width="12.2" height="24.65" shape-rendering="crispEdges"/>
    <g class="terminal-488578632-matrix">
    <text class="terminal-488578632-r2" x="12.2" y="20" textLength="12.2" clip-path="url(#terminal-488578632-line-0)">⭘</text><text class="terminal-488578632-r2" x="488" y="20" textLength="207.4" clip-path="url(#terminal-488578632-line-0)">GoldenMatch&#160;Setup</text><text class="terminal-488578632-r1" x="1220" y="20" textLength="12.2" clip-path="url(#terminal-488578632-line-0)">
</text><text class="terminal-488578632-r3" x="122" y="44.4" textLength="12.2" clip-path="url(#terminal-488578632-line-1)">┌</text><text class="terminal-488578632-r3" x="134.2" y="44.4" textLength="951.6" clip-path="url(#terminal-488578632-line-1)">──────────────────────────────────────────────────────────────────────────────</text><text class="terminal-488578632-r3" x="1085.8" y="44.4" textLength="12.2" clip-path="url(#terminal-488578632-line-1)">┐</text><text class="terminal-488578632-r1" x="1220" y="44.4" textLength="12.2" clip-path="url(#terminal-488578632-line-1)">
</text><text class="terminal-488578632-r3" x="122" y="68.8" textLength="12.2" clip-path="url(#terminal-488578632-line-2)">│</text><text class="terminal-488578632-r3" x="1085.8" y="68.8" textLength="12.2" clip-path="url(#terminal-488578632-line-2)">│</text><text class="terminal-488578632-r1" x="1220" y="68.8" textLength="12.2" clip-path="url(#terminal-488578632-line-2)">
</text><text class="terminal-488578632-r3" x="122" y="93.2" textLength="12.2" clip-path="url(#terminal-488578632-line-3)">│</text><text class="terminal-488578632-r3" x="1085.8" y="93.2" textLength="12.2" clip-path="url(#terminal-488578632-line-3)">│</text><text class="terminal-488578632-r1" x="1220" y="93.2" textLength="12.2" clip-path="url(#terminal-488578632-line-3)">
</text><text class="terminal-488578632-r3" x="122" y="117.6" textLength="12.2" clip-path="url(#terminal-488578632-line-4)">│</text><text class="terminal-488578632-r4" x="463.6" y="117.6" textLength="292.8" clip-path="url(#terminal-488578632-line-4)">GoldenMatch&#160;Setup&#160;Wizard</text><text class="terminal-488578632-r3" x="1085.8" y="117.6" textLength="12.2" clip-path="url(#terminal-488578632-line-4)">│</text><text class="terminal-488578632-r1" x="1220" y="117.6" textLength="12.2" clip-path="url(#terminal-488578632-line-4)">
</text><text class="terminal-488578632-r3" x="122" y="142" textLength="12.2" clip-path="url(#terminal-488578632-line-5)">│</text><text class="terminal-488578632-r3" x="1085.8" y="142" textLength="12.2" clip-path="url(#terminal-488578632-line-5)">│</text><text class="terminal-488578632-r1" x="1220" y="142" textLength="12.2" clip-path="url(#terminal-488578632-line-5)">
</text><text class="terminal-488578632-r3" x="122" y="166.4" textLength="12.2" clip-path="url(#terminal-488578632-line-6)">│</text><text class="terminal-488578632-r5" x="536.8" y="166.4" textLength="134.2" clip-path="url(#terminal-488578632-line-6)">Step&#160;1&#160;of&#160;6</text><text class="terminal-488578632-r3" x="1085.8" y="166.4" textLength="12.2" clip-path="url(#terminal-488578632-line-6)">│</text><text class="terminal-488578632-r1" x="1220" y="166.4" textLength="12.2" clip-path="url(#terminal-488578632-line-6)">
</text><text class="terminal-488578632-r3" x="122" y="190.8" textLength="12.2" clip-path="url(#terminal-488578632-line-7)">│</text><text class="terminal-488578632-r3" x="1085.8" y="190.8" textLength="12.2" clip-path="url(#terminal-488578632-line-7)">│</text><text class="terminal-488578632-r1" x="1220" y="190.8" textLength="12.2" clip-path="url(#terminal-488578632-line-7)">
</text><text class="terminal-488578632-r3" x="122" y="215.2" textLength="12.2" clip-path="url(#terminal-488578632-line-8)">│</text><text class="terminal-488578632-r6" x="183" y="215.2" textLength="97.6" clip-path="url(#terminal-488578632-line-8)">Welcome!</text><text class="terminal-488578632-r3" x="1085.8" y="215.2" textLength="12.2" clip-path="url(#terminal-488578632-line-8)">│</text><text class="terminal-488578632-r1" x="1220" y="215.2" textLength="12.2" clip-path="url(#terminal-488578632-line-8)">
</text><text class="terminal-488578632-r3" x="122" y="239.6" textLength="12.2" clip-path="url(#terminal-488578632-line-9)">│</text><text class="terminal-488578632-r3" x="1085.8" y="239.6" textLength="12.2" clip-path="url(#terminal-488578632-line-9)">│</text><text class="terminal-488578632-r1" x="1220" y="239.6" textLength="12.2" clip-path="url(#terminal-488578632-line-9)">
</text><text class="terminal-488578632-r3" x="122" y="264" textLength="12.2" clip-path="url(#terminal-488578632-line-10)">│</text><text class="terminal-488578632-r7" x="183" y="264" textLength="536.8" clip-path="url(#terminal-488578632-line-10)">This&#160;wizard&#160;helps&#160;you&#160;configure&#160;GoldenMatch.</text><text class="terminal-488578632-r3" x="1085.8" y="264" textLength="12.2" clip-path="url(#terminal-488578632-line-10)">│</text><text class="terminal-488578632-r1" x="1220" y="264" textLength="12.2" clip-path="url(#terminal-488578632-line-10)">
</text><text class="terminal-488578632-r3" x="122" y="288.4" textLength="12.2" clip-path="url(#terminal-488578632-line-11)">│</text><text class="terminal-488578632-r7" x="183" y="288.4" textLength="597.8" clip-path="url(#terminal-488578632-line-11)">Each&#160;step&#160;is&#160;optional&#160;—&#160;skip&#160;what&#160;you&#160;don&#x27;t&#160;need.</text><text class="terminal-488578632-r3" x="1085.8" y="288.4" textLength="12.2" clip-path="url(#terminal-488578632-line-11)">│</text><text class="terminal-488578632-r1" x="1220" y="288.4" textLength="12.2" clip-path="url(#terminal-488578632-line-11)">
</text><text class="terminal-488578632-r3" x="122" y="312.8" textLength="12.2" clip-path="url(#terminal-488578632-line-12)">│</text><text class="terminal-488578632-r3" x="1085.8" y="312.8" textLength="12.2" clip-path="url(#terminal-488578632-line-12)">│</text><text class="terminal-488578632-r1" x="1220" y="312.8" textLength="12.2" clip-path="url(#terminal-488578632-line-12)">
</text><text class="terminal-488578632-r3" x="122" y="337.2" textLength="12.2" clip-path="url(#terminal-488578632-line-13)">│</text><text class="terminal-488578632-r4" x="183" y="337.2" textLength="183" clip-path="url(#terminal-488578632-line-13)">Current&#160;Status:</text><text class="terminal-488578632-r3" x="1085.8" y="337.2" textLength="12.2" clip-path="url(#terminal-488578632-line-13)">│</text><text class="terminal-488578632-r1" x="1220" y="337.2" textLength="12.2" clip-path="url(#terminal-488578632-line-13)">
</text><text class="terminal-488578632-r3" x="122" y="361.6" textLength="12.2" clip-path="url(#terminal-488578632-line-14)">│</text><text class="terminal-488578632-r8" x="207.4" y="361.6" textLength="12.2" clip-path="url(#terminal-488578632-line-14)">✓</text><text class="terminal-488578632-r7" x="219.6" y="361.6" textLength="244" clip-path="url(#terminal-488578632-line-14)">&#160;Vertex&#160;AI:&#160;project&#160;</text><text class="terminal-488578632-r6" x="463.6" y="361.6" textLength="317.2" clip-path="url(#terminal-488578632-line-14)">gen-lang-client-0692108803</text><text class="terminal-488578632-r3" x="1085.8" y="361.6" textLength="12.2" clip-path="url(#terminal-488578632-line-14)">│</text><text class="terminal-488578632-r1" x="1220" y="361.6" textLength="12.2" clip-path="url(#terminal-488578632-line-14)">
</text><text class="terminal-488578632-r3" x="122" y="386" textLength="12.2" clip-path="url(#terminal-488578632-line-15)">│</text><text class="terminal-488578632-r5" x="207.4" y="386" textLength="12.2" clip-path="url(#terminal-488578632-line-15)">○</text><text class="terminal-488578632-r7" x="219.6" y="386" textLength="451.4" clip-path="url(#terminal-488578632-line-15)">&#160;LLM&#160;Boost:&#160;not&#160;configured&#160;(optional)</text><text class="terminal-488578632-r3" x="1085.8" y="386" textLength="12.2" clip-path="url(#terminal-488578632-line-15)">│</text><text class="terminal-488578632-r1" x="1220" y="386" textLength="12.2" clip-path="url(#terminal-488578632-line-15)">
</text><text class="terminal-488578632-r3" x="122" y="410.4" textLength="12.2" clip-path="url(#terminal-488578632-line-16)">│</text><text class="terminal-488578632-r5" x="207.4" y="410.4" textLength="12.2" clip-path="url(#terminal-488578632-line-16)">○</text><text class="terminal-488578632-r7" x="219.6" y="410.4" textLength="439.2" clip-path="url(#terminal-488578632-line-16)">&#160;Database:&#160;not&#160;configured&#160;(optional)</text><text class="terminal-488578632-r3" x="1085.8" y="410.4" textLength="12.2" clip-path="url(#terminal-488578632-line-16)">│</text><text class="terminal-488578632-r1" x="1220" y="410.4" textLength="12.2" clip-path="url(#terminal-488578632-line-16)">
</text><text class="terminal-488578632-r3" x="122" y="434.8" textLength="12.2" clip-path="url(#terminal-488578632-line-17)">│</text><text class="terminal-488578632-r3" x="1085.8" y="434.8" textLength="12.2" clip-path="url(#terminal-488578632-line-17)">│</text><text class="terminal-488578632-r1" x="1220" y="434.8" textLength="12.2" clip-path="url(#terminal-488578632-line-17)">
</text><text class="terminal-488578632-r3" x="122" y="459.2" textLength="12.2" clip-path="url(#terminal-488578632-line-18)">│</text><text class="terminal-488578632-r3" x="1085.8" y="459.2" textLength="12.2" clip-path="url(#terminal-488578632-line-18)">│</text><text class="terminal-488578632-r1" x="1220" y="459.2" textLength="12.2" clip-path="url(#terminal-488578632-line-18)">
</text><text class="terminal-488578632-r3" x="122" y="483.6" textLength="12.2" clip-path="url(#terminal-488578632-line-19)">│</text><text class="terminal-488578632-r3" x="1085.8" y="483.6" textLength="12.2" clip-path="url(#terminal-488578632-line-19)">│</text><text class="terminal-488578632-r1" x="1220" y="483.6" textLength="12.2" clip-path="url(#terminal-488578632-line-19)">
</text><text class="terminal-488578632-r3" x="122" y="508" textLength="12.2" clip-path="url(#terminal-488578632-line-20)">│</text><text class="terminal-488578632-r3" x="1085.8" y="508" textLength="12.2" clip-path="url(#terminal-488578632-line-20)">│</text><text class="terminal-488578632-r1" x="1220" y="508" textLength="12.2" clip-path="url(#terminal-488578632-line-20)">
</text><text class="terminal-488578632-r3" x="122" y="532.4" textLength="12.2" clip-path="url(#terminal-488578632-line-21)">│</text><text class="terminal-488578632-r9" x="512.4" y="532.4" textLength="195.2" clip-path="url(#terminal-488578632-line-21)">▔▔▔▔▔▔▔▔▔▔▔▔▔▔▔▔</text><text class="terminal-488578632-r3" x="1085.8" y="532.4" textLength="12.2" clip-path="url(#terminal-488578632-line-21)">│</text><text class="terminal-488578632-r1" x="1220" y="532.4" textLength="12.2" clip-path="url(#terminal-488578632-line-21)">
</text><text class="terminal-488578632-r3" x="122" y="556.8" textLength="12.2" clip-path="url(#terminal-488578632-line-22)">│</text><text class="terminal-488578632-r10" x="573.4" y="556.8" textLength="73.2" clip-path="url(#terminal-488578632-line-22)">&#160;Next&#160;</text><text class="terminal-488578632-r3" x="1085.8" y="556.8" textLength="12.2" clip-path="url(#terminal-488578632-line-22)">│</text><text class="terminal-488578632-r1" x="1220" y="556.8" textLength="12.2" clip-path="url(#terminal-488578632-line-22)">
</text><text class="terminal-488578632-r3" x="122" y="581.2" textLength="12.2" clip-path="url(#terminal-488578632-line-23)">│</text><text class="terminal-488578632-r11" x="512.4" y="581.2" textLength="195.2" clip-path="url(#terminal-488578632-line-23)">▁▁▁▁▁▁▁▁▁▁▁▁▁▁▁▁</text><text class="terminal-488578632-r3" x="1085.8" y="581.2" textLength="12.2" clip-path="url(#terminal-488578632-line-23)">│</text><text class="terminal-488578632-r1" x="1220" y="581.2" textLength="12.2" clip-path="url(#terminal-488578632-line-23)">
</text><text class="terminal-488578632-r3" x="122" y="605.6" textLength="12.2" clip-path="url(#terminal-488578632-line-24)">│</text><text class="terminal-488578632-r3" x="1085.8" y="605.6" textLength="12.2" clip-path="url(#terminal-488578632-line-24)">│</text><text class="terminal-488578632-r1" x="1220" y="605.6" textLength="12.2" clip-path="url(#terminal-488578632-line-24)">
</text><text class="terminal-488578632-r3" x="122" y="630" textLength="12.2" clip-path="url(#terminal-488578632-line-25)">│</text><text class="terminal-488578632-r3" x="1085.8" y="630" textLength="12.2" clip-path="url(#terminal-488578632-line-25)">│</text><text class="terminal-488578632-r1" x="1220" y="630" textLength="12.2" clip-path="url(#terminal-488578632-line-25)">
</text><text class="terminal-488578632-r3" x="122" y="654.4" textLength="12.2" clip-path="url(#terminal-488578632-line-26)">└</text><text class="terminal-488578632-r3" x="134.2" y="654.4" textLength="951.6" clip-path="url(#terminal-488578632-line-26)">──────────────────────────────────────────────────────────────────────────────</text><text class="terminal-488578632-r3" x="1085.8" y="654.4" textLength="12.2" clip-path="url(#terminal-488578632-line-26)">┘</text><text class="terminal-488578632-r1" x="1220" y="654.4" textLength="12.2" clip-path="url(#terminal-488578632-line-26)">
</text><text class="terminal-488578632-r1" x="1220" y="678.8" textLength="12.2" clip-path="url(#terminal-488578632-line-27)">
</text><text class="terminal-488578632-r1" x="1220" y="703.2" textLength="12.2" clip-path="url(#terminal-488578632-line-28)">
</text><text class="terminal-488578632-r1" x="1220" y="727.6" textLength="12.2" clip-path="url(#terminal-488578632-line-29)">
</text><text class="terminal-488578632-r1" x="1220" y="752" textLength="12.2" clip-path="url(#terminal-488578632-line-30)">
</text><text class="terminal-488578632-r1" x="1220" y="776.4" textLength="12.2" clip-path="url(#terminal-488578632-line-31)">
</text><text class="terminal-488578632-r1" x="1220" y="800.8" textLength="12.2" clip-path="url(#terminal-488578632-line-32)">
</text><text class="terminal-488578632-r1" x="1220" y="825.2" textLength="12.2" clip-path="url(#terminal-488578632-line-33)">
</text><text class="terminal-488578632-r1" x="1220" y="849.6" textLength="12.2" clip-path="url(#terminal-488578632-line-34)">
</text><text class="terminal-488578632-r1" x="1220" y="874" textLength="12.2" clip-path="url(#terminal-488578632-line-35)">
</text><text class="terminal-488578632-r1" x="1220" y="898.4" textLength="12.2" clip-path="url(#terminal-488578632-line-36)">
</text><text class="terminal-488578632-r1" x="1220" y="922.8" textLength="12.2" clip-path="url(#terminal-488578632-line-37)">
</text><text class="terminal-488578632-r1" x="1220" y="947.2" textLength="12.2" clip-path="url(#terminal-488578632-line-38)">
</text><text class="terminal-488578632-r12" x="0" y="971.6" textLength="61" clip-path="url(#terminal-488578632-line-39)">&#160;esc&#160;</text><text class="terminal-488578632-r7" x="61" y="971.6" textLength="85.4" clip-path="url(#terminal-488578632-line-39)">Cancel&#160;</text><text class="terminal-488578632-r13" x="1073.6" y="971.6" textLength="12.2" clip-path="url(#terminal-488578632-line-39)">▏</text><text class="terminal-488578632-r12" x="1085.8" y="971.6" textLength="24.4" clip-path="url(#terminal-488578632-line-39)">^p</text><text class="terminal-488578632-r7" x="1110.2" y="971.6" textLength="97.6" clip-path="url(#terminal-488578632-line-39)">&#160;palette</text>
    </g>
    </g>
</svg>
